<svg width="242" height="211" viewBox="0 0 242 211" fill="none" xmlns="http://www.w3.org/2000/svg">
<path d="M140.908 107.466C132.687 95.9574 121.759 85.856 111.148 76.5606C101.967 68.5177 90.8204 60.1434 78.8786 56.7025C68.216 53.6302 53.9365 51.8963 43.3085 55.8023C39.498 57.2028 35.254 58.1618 31.9338 60.6032C27.8135 63.6328 25.966 68.6875 25.3326 73.6146C24.8542 77.3348 25.0325 81.1397 25.0325 84.8803C25.0325 89.4107 24.7946 93.9702 26.1509 98.3554C29.0945 107.873 35.0118 116.882 41.7537 124.106C69.3479 153.671 109.517 165.148 147.127 175.742C151.595 177.001 155.892 178.647 160.275 180.134C162.351 180.838 164.957 181.415 166.822 182.589C167.559 183.053 171.254 184.6 170.368 185.044" stroke="white" stroke-width="50" stroke-linecap="round"/>
<path d="M132.808 120.853C132.808 106.232 131.367 91.2897 135.449 77.1867C139.242 64.0836 145.829 53.4161 153.512 42.2962C162.063 29.9203 173.438 25 188.062 25C201.458 25 208.141 37.6924 214.432 47.5787C216.329 50.5603 216.392 53.1143 216.392 56.6102C216.392 65.0238 216.411 72.4196 212.728 80.2114C206.017 94.4072 196.791 107.507 188.828 121.023C184.829 127.814 181.701 135.175 177.667 141.898C175.118 146.146 172.266 150.904 170.553 155.531C168.934 159.902 164.248 172.674 164.248 168.013C164.248 147.879 169.359 129.079 174.6 109.862C178.17 96.77 177.298 81.9044 182.822 69.4758C183.334 68.3241 184.367 67.1753 182.992 67.1753C178.426 67.1753 172.993 72.694 169.615 75.227C158.414 83.6281 152.463 94.6311 148.315 107.817C144.351 120.417 141.205 133.528 136.216 145.775C134.107 150.952 131.389 157.511 126.29 160.344C121.925 162.769 117.642 156.69 114.574 154.764C111.231 152.664 107.992 149.716 105.202 146.925C101.907 143.63 97.877 141.231 94.8073 137.723C86.9226 128.712 72.9475 118.457 72.2286 105.517C72.043 102.175 69.7977 97.5602 68.0111 94.781C66.8554 92.9834 65.4174 91.4632 63.9639 90.0097C61.7196 87.7653 68.2471 88.6475 69.1613 88.8168C75.5129 89.993 82.8142 93.7346 88.7153 96.3573C95.747 99.4825 102.797 104.368 108.994 108.925C112.897 111.795 116.461 115.001 120.155 118.127C121.681 119.418 123.995 121.841 125.906 122.387C133.367 124.518 135.748 123.403 141.413 117.019C147.482 110.179 153.457 103.396 159.263 96.3147C164.404 90.0451 168.075 83.5842 172.299 76.7606C175.389 71.7686 178.513 65.9454 182.651 61.8076C184.567 59.892 188.295 55.673 191.086 55.673" stroke="white" stroke-width="50" stroke-linecap="round"/>
<path d="M214.131 79.4535C214.131 69.6742 208.093 101.77 204.548 110.884C202.164 117.015 202.002 124.091 199.351 130.055C196.248 137.037 191.743 145.037 190.362 152.634C189.818 155.624 184.96 159.491 184.631 162.454C184.631 162.454 170.631 185.4 170.631 183.454" stroke="white" stroke-width="50" stroke-linecap="round"/>
</svg>
